<svg width="152" height="216" viewBox="0 0 152 216" fill="none" xmlns="http://www.w3.org/2000/svg">
<path fill-rule="evenodd" clip-rule="evenodd" d="M89.5426 0C100.284 0 110.302 3.08572 119.597 9.25715C129.098 15.4286 136.741 23.76 142.525 34.2514C148.308 44.7429 151.2 56.4686 151.2 69.4286C151.2 82.1829 148.308 93.8057 142.525 104.297C136.741 114.789 129.098 123.223 119.597 129.6C110.302 135.771 100.284 137.7 89.5426 137.7L59.4 137.7C50.453 137.7 43.2 130.447 43.2 121.5C43.2 112.553 50.453 105.3 59.4 105.3H89.5426C93.4672 105.3 97.532 101.841 101.25 98.55C104.968 95.2586 107.823 91.2343 110.302 86.0914C112.78 80.7429 114.02 75.1886 114.02 69.4286C114.02 63.4629 112.78 57.9086 110.302 52.7657C107.823 47.6229 104.725 43.5086 101.007 40.4229C97.2885 37.1314 93.4672 35.1 89.5426 35.1H35.1V105.3V137.7V167.4V197.1C35.1 202.449 33.9787 207.051 30.6738 210.754C27.3689 214.251 23.0311 216 17.6607 216C12.4967 216 8.2623 214.251 4.95738 210.754C1.65246 207.051 0 202.526 0 197.177V18.8229C0 13.4743 1.75574 9.05143 5.26721 5.55429C8.98525 1.85143 13.5295 0 18.9 0H89.5426Z" fill="#2DD4BF"/>
</svg>
